# xmcd
#
# Track frame offsets:
#	150
#	13151
#	28243
#	44759
#	61026
#	80577
#	99236
#	119484
#	135837
#	147737
#	159845
#	173871
#	186394
#	203078
#	219678
#	238962
#	256889
#	269569
#	282155
#
# Disc length: 3984 seconds
#
# Revision: 0
# Processed by: cddbd v1.4b42PL1 Copyright (c) Steve Scherf et al.
# Submitted via: audiograbber 1.80
#
DISCID=200f8e13
DTITLE=Евгений Мартынов  - Яблони в цвету
DYEAR=1900
DGENRE=
TTITLE0=А любовь права      
TTITLE1=Ах как хочется влюбиться     
TTITLE2=Чайки над водой       
TTITLE3=Этот май      
TTITLE4=Ласточки домой вернулись     
TTITLE5=Марьина роща       
TTITLE6=На качелях       
TTITLE7=Начни сначала    
TTITLE8=Наш день       
TTITLE9=Невеста      
TTITLE10=Повезло      
TTITLE11=Ты приносишь мне рассвет      
TTITLE12=Трава-лебеда       
TTITLE13=В мире чудаков     
TTITLE14=Васильковые глаза  
TTITLE15=Верю в тебя       
TTITLE16=Веселый зонтик    
TTITLE17=Яблони в цвету-2  
TTITLE18=Яблони в цвету      
EXTD=
EXTT0=
EXTT1=
EXTT2=
EXTT3=
EXTT4=
EXTT5=
EXTT6=
EXTT7=
EXTT8=
EXTT9=
EXTT10=
EXTT11=
EXTT12=
EXTT13=
EXTT14=
EXTT15=
EXTT16=
EXTT17=
EXTT18=
PLAYORDER=
